{"title":"Lawless 2012 TS XviD AC3 - TODE","uid":7649408,"size":729697382,"categoryP":"video","categoryS":"movies","magnet":"?xt=urn:btih:51ef47f19101504282e80031e276e1b9ed5ecd0e&amp;dn=Lawless+2012+TS+XviD+AC3+-+TODE&amp;tr=udp%3A%2F%2Ftracker.openbittorrent.com%3A80&amp;tr=udp%3A%2F%2Fopen.demonii.com%3A1337&amp;tr=udp%3A%2F%2Ftracker.coppersurfer.tk%3A6969&amp;tr=udp%3A%2F%2Fexodus.desync.com%3A6969","seeders":1,"leechers":0,"uploader":"Gh0stNet","files":2,"time":1347982881,"description":" &lt;a href=&quot;http://www.imdb.com/title/tt1212450/&quot; rel=&quot;nofollow&quot; target=&quot;_NEW&quot;&gt;http://www.imdb.com/title/tt1212450/&lt;/a&gt;\n\n\nPlot: Set in Depression-era Franklin County, Virginia, a bootlegging gang is threatened by a new deputy and other authorities who want a cut of their profits.\n\nDirector:\nJohn Hillcoat\nWriters:\nNick Cave (screenplay), Matt Bondurant (novel)\nStars:\nTom Hardy, Shia LaBeouf and Guy Pearce\n\nGenres:\nCrime | Drama | Western\n\nThanks : MATiNE\n\n\nFormat : AVI\nFormat/Info : Audio Video Interleave\nFile size : 696 MiB\nDuration : 1h 49mn\nOverall bit rate : 891 Kbps\nWriting application : Lavf54.26.100\n\nVideo\nID : 0\nFormat : MPEG-4 Visual\nFormat profile : Simple@L3\nFormat settings, BVOP : No\nFormat settings, QPel : No\nFormat settings, GMC : No warppoints\nFormat settings, Matrix : Default (H.263)\nCodec ID : XVID\nCodec ID/Hint : XviD\nDuration : 1h 49mn\nBit rate : 800 Kbps\nWidth : 640 pixels\nHeight : 272 pixels\nDisplay aspect ratio : 2.35:1\nFrame rate : 25.000 fps\nColor space : YUV\nChroma subsampling : 4:2:0\nBit depth : 8 bits\nScan type : Progressive\nCompression mode : Lossy\nBits/(Pixel*Frame) : 0.184\nStream size : 625 MiB (90%)\nWriting library : XviD 64\n\nAudio\nID : 1\nFormat : AC-3\nFormat/Info : Audio Coding 3\nMode extension : CM (complete main)\nFormat settings, Endianness : Big\nCodec ID : 2000\nDuration : 1h 49mn\nBit rate mode : Constant\nBit rate : 80.0 Kbps\nChannel(s) : 2 channels\nChannel positions : Front: L R\nSampling rate : 48.0 KHz\nBit depth : 16 bits\nCompression mode : Lossy\nStream size : 62.5 MiB (9%)\nAlignment : Aligned on interleaves\nInterleave, duration : 32 ms (0.80 video frame)\n\n\nScreens :\n\n\n","torrent":{"xt":"urn:btih:51ef47f19101504282e80031e276e1b9ed5ecd0e","amp;dn":"Lawless+2012+TS+XviD+AC3+-+TODE","amp;tr":["udp%3A%2F%2Ftracker.openbittorrent.com%3A80","udp%3A%2F%2Fopen.demonii.com%3A1337","udp%3A%2F%2Ftracker.coppersurfer.tk%3A6969","udp%3A%2F%2Fexodus.desync.com%3A6969"],"infoHash":"51ef47f19101504282e80031e276e1b9ed5ecd0e","infoHashBuffer":{"type":"Buffer","data":[81,239,71,241,145,1,80,66,130,232,0,49,226,118,225,185,237,94,205,14]},"announce":[],"urlList":[]}}